<svg version="1.1" xmlns="http://www.w3.org/2000/svg" xmlns:xlink="http://www.w3.org/1999/xlink" width="652" height="228"><defs/><g><g transform="translate(-174,-166) scale(1,1)"><path fill="#C0C0C0" stroke="none" d="M 191 257 L 324 257 L 324 326 L 191 326" opacity="0.2"/></g><g transform="translate(-174,-166) scale(1,1)"><path fill="#C0C0C0" stroke="none" d="M 191 257 L 201 247 L 334 247 L 324 257" opacity="0.2"/></g><g transform="translate(-174,-166) scale(1,1)"><path fill="#C0C0C0" stroke="none" d="M 334 247 L 324 257 L 324 326 L 334 316" opacity="0.2"/></g><g transform="translate(-174,-166) scale(1,1)"><path fill="#ffffff" stroke="none" d="M 184 250 L 317 250 L 317 319 L 184 319"/></g><g transform="translate(-174,-166) scale(1,1)"><path fill="#ffffff" stroke="none" d="M 184 250 L 194 240 L 327 240 L 317 250"/></g><g transform="translate(-174,-166) scale(1,1)"><path fill="#ffffff" stroke="none" d="M 327 240 L 317 250 L 317 319 L 327 309"/></g><g transform="translate(-174,-166) scale(1,1)"><path fill="none" stroke="#000000" d="M 184 250 L 317 250 L 317 319 L 184 319 L 184 250" stroke-miterlimit="10"/></g><g transform="translate(-174,-166) scale(1,1)"><path fill="none" stroke="#000000" d="M 184 250 L 194 240 L 327 240 L 317 250 L 184 250" stroke-miterlimit="10"/></g><g transform="translate(-174,-166) scale(1,1)"><path fill="none" stroke="#000000" d="M 327 240 L 317 250 L 317 319 L 327 309 L 327 240" stroke-miterlimit="10"/></g><g transform="translate(-174,-166) scale(1,1)"><g><path fill="none" stroke="none"/><text fill="#000000" stroke="none" font-family="Arial" font-size="13px" font-style="normal" font-weight="bold" text-decoration="none" x="207.6455078125" y="269.5">User Database</text><path fill="none" stroke="#000000" d="M 296.16357421875 269.5 L 205.83642578125 269.5" stroke-miterlimit="10"/></g></g><g transform="translate(-174,-166) scale(1,1)"><path fill="#C0C0C0" stroke="none" d="M 447 241 L 569.8671875 241 L 569.8671875 334 L 447 334" opacity="0.2"/></g><g transform="translate(-174,-166) scale(1,1)"><path fill="#C0C0C0" stroke="none" d="M 447 241 L 457 231 L 579.8671875 231 L 569.8671875 241" opacity="0.2"/></g><g transform="translate(-174,-166) scale(1,1)"><path fill="#C0C0C0" stroke="none" d="M 579.8671875 231 L 569.8671875 241 L 569.8671875 334 L 579.8671875 324" opacity="0.2"/></g><g transform="translate(-174,-166) scale(1,1)"><path fill="#ffffff" stroke="none" d="M 440 234 L 562.8671875 234 L 562.8671875 327 L 440 327"/></g><g transform="translate(-174,-166) scale(1,1)"><path fill="#ffffff" stroke="none" d="M 440 234 L 450 224 L 572.8671875 224 L 562.8671875 234"/></g><g transform="translate(-174,-166) scale(1,1)"><path fill="#ffffff" stroke="none" d="M 572.8671875 224 L 562.8671875 234 L 562.8671875 327 L 572.8671875 317"/></g><g transform="translate(-174,-166) scale(1,1)"><path fill="none" stroke="#000000" d="M 440 234 L 562.8671875 234 L 562.8671875 327 L 440 327 L 440 234" stroke-miterlimit="10"/></g><g transform="translate(-174,-166) scale(1,1)"><path fill="none" stroke="#000000" d="M 440 234 L 450 224 L 572.8671875 224 L 562.8671875 234 L 440 234" stroke-miterlimit="10"/></g><g transform="translate(-174,-166) scale(1,1)"><path fill="none" stroke="#000000" d="M 572.8671875 224 L 562.8671875 234 L 562.8671875 327 L 572.8671875 317 L 572.8671875 224" stroke-miterlimit="10"/></g><g transform="translate(-174,-166) scale(1,1)"><g><path fill="none" stroke="none"/><text fill="#000000" stroke="none" font-family="Arial" font-size="13px" font-style="normal" font-weight="bold" text-decoration="none" x="449.1845703125" y="253.5">Application Server</text><path fill="none" stroke="#000000" d="M 559.3671875 253.5 L 444.5 253.5" stroke-miterlimit="10"/></g></g><g transform="translate(-174,-166) scale(1,1)"><path fill="#C0C0C0" stroke="none" d="M 679 193 L 812 193 L 812 270 L 679 270" opacity="0.2"/></g><g transform="translate(-174,-166) scale(1,1)"><path fill="#C0C0C0" stroke="none" d="M 679 193 L 689 183 L 822 183 L 812 193" opacity="0.2"/></g><g transform="translate(-174,-166) scale(1,1)"><path fill="#C0C0C0" stroke="none" d="M 822 183 L 812 193 L 812 270 L 822 260" opacity="0.2"/></g><g transform="translate(-174,-166) scale(1,1)"><path fill="#ffffff" stroke="none" d="M 672 186 L 805 186 L 805 263 L 672 263"/></g><g transform="translate(-174,-166) scale(1,1)"><path fill="#ffffff" stroke="none" d="M 672 186 L 682 176 L 815 176 L 805 186"/></g><g transform="translate(-174,-166) scale(1,1)"><path fill="#ffffff" stroke="none" d="M 815 176 L 805 186 L 805 263 L 815 253"/></g><g transform="translate(-174,-166) scale(1,1)"><path fill="none" stroke="#000000" d="M 672 186 L 805 186 L 805 263 L 672 263 L 672 186" stroke-miterlimit="10"/></g><g transform="translate(-174,-166) scale(1,1)"><path fill="none" stroke="#000000" d="M 672 186 L 682 176 L 815 176 L 805 186 L 672 186" stroke-miterlimit="10"/></g><g transform="translate(-174,-166) scale(1,1)"><path fill="none" stroke="#000000" d="M 815 176 L 805 186 L 805 263 L 815 253 L 815 176" stroke-miterlimit="10"/></g><g transform="translate(-174,-166) scale(1,1)"><g><path fill="none" stroke="none"/><text fill="#000000" stroke="none" font-family="Arial" font-size="13px" font-style="normal" font-weight="bold" text-decoration="none" x="721.658203125" y="205.5">Guest</text><path fill="none" stroke="#000000" d="M 757.4208984375 205.5 L 720.5791015625 205.5" stroke-miterlimit="10"/></g></g><g transform="translate(-174,-166) scale(1,1)"><path fill="#C0C0C0" stroke="none" d="M 671 329 L 778.708984375 329 L 778.708984375 390 L 671 390" opacity="0.2"/></g><g transform="translate(-174,-166) scale(1,1)"><path fill="#C0C0C0" stroke="none" d="M 671 329 L 681 319 L 788.708984375 319 L 778.708984375 329" opacity="0.2"/></g><g transform="translate(-174,-166) scale(1,1)"><path fill="#C0C0C0" stroke="none" d="M 788.708984375 319 L 778.708984375 329 L 778.708984375 390 L 788.708984375 380" opacity="0.2"/></g><g transform="translate(-174,-166) scale(1,1)"><path fill="#ffffff" stroke="none" d="M 664 322 L 771.708984375 322 L 771.708984375 383 L 664 383"/></g><g transform="translate(-174,-166) scale(1,1)"><path fill="#ffffff" stroke="none" d="M 664 322 L 674 312 L 781.708984375 312 L 771.708984375 322"/></g><g transform="translate(-174,-166) scale(1,1)"><path fill="#ffffff" stroke="none" d="M 781.708984375 312 L 771.708984375 322 L 771.708984375 383 L 781.708984375 373"/></g><g transform="translate(-174,-166) scale(1,1)"><path fill="none" stroke="#000000" d="M 664 322 L 771.708984375 322 L 771.708984375 383 L 664 383 L 664 322" stroke-miterlimit="10"/></g><g transform="translate(-174,-166) scale(1,1)"><path fill="none" stroke="#000000" d="M 664 322 L 674 312 L 781.708984375 312 L 771.708984375 322 L 664 322" stroke-miterlimit="10"/></g><g transform="translate(-174,-166) scale(1,1)"><path fill="none" stroke="#000000" d="M 781.708984375 312 L 771.708984375 322 L 771.708984375 383 L 781.708984375 373 L 781.708984375 312" stroke-miterlimit="10"/></g><g transform="translate(-174,-166) scale(1,1)"><g><path fill="none" stroke="none"/><text fill="#000000" stroke="none" font-family="Arial" font-size="13px" font-style="normal" font-weight="bold" text-decoration="none" x="671.391357421875" y="341.5">Registered User</text><path fill="none" stroke="#000000" d="M 768.208984375 341.5 L 668.5 341.5" stroke-miterlimit="10"/></g></g><g transform="translate(-174,-166) scale(1,1)"><rect fill="#C0C0C0" stroke="none" x="703" y="223" width="79.04638671875" height="24" opacity="0.2"/></g><g transform="translate(-174,-166) scale(1,1)"><rect fill="#ffffff" stroke="none" x="696" y="216" width="79.04638671875" height="24"/></g><g transform="translate(-174,-166) scale(1,1)"><path fill="none" stroke="#000000" d="M 696 216 L 775.04638671875 216 L 775.04638671875 240 L 696 240 L 696 216 Z Z" stroke-miterlimit="10"/></g><g transform="translate(-174,-166) scale(1,1)"><rect fill="#ffffff" stroke="none" x="696" y="216" width="79.04638671875" height="24"/></g><g transform="translate(-174,-166) scale(1,1)"><path fill="none" stroke="#000000" d="M 696 216 L 775.04638671875 216 L 775.04638671875 240 L 696 240 L 696 216 Z Z" stroke-miterlimit="10"/></g><g transform="translate(-174,-166) scale(1,1)"><g><path fill="none" stroke="none"/><text fill="#000000" stroke="none" font-family="Arial" font-size="13px" font-style="normal" font-weight="bold" text-decoration="none" x="703.004150390625" y="235.5">Mobile App</text><path fill="none" stroke="#000000" d="M 770.54638671875 235.5 L 700.5 235.5" stroke-miterlimit="10"/></g></g><g transform="translate(-174,-166) scale(1,1)"><rect fill="#C0C0C0" stroke="none" x="687" y="359" width="79.04638671875" height="24" opacity="0.2"/></g><g transform="translate(-174,-166) scale(1,1)"><rect fill="#ffffff" stroke="none" x="680" y="352" width="79.04638671875" height="24"/></g><g transform="translate(-174,-166) scale(1,1)"><path fill="none" stroke="#000000" d="M 680 352 L 759.04638671875 352 L 759.04638671875 376 L 680 376 L 680 352 Z Z" stroke-miterlimit="10"/></g><g transform="translate(-174,-166) scale(1,1)"><rect fill="#ffffff" stroke="none" x="680" y="352" width="79.04638671875" height="24"/></g><g transform="translate(-174,-166) scale(1,1)"><path fill="none" stroke="#000000" d="M 680 352 L 759.04638671875 352 L 759.04638671875 376 L 680 376 L 680 352 Z Z" stroke-miterlimit="10"/></g><g transform="translate(-174,-166) scale(1,1)"><g><path fill="none" stroke="none"/><text fill="#000000" stroke="none" font-family="Arial" font-size="13px" font-style="normal" font-weight="bold" text-decoration="none" x="687.004150390625" y="371.5">Mobile App</text><path fill="none" stroke="#000000" d="M 754.54638671875 371.5 L 684.5 371.5" stroke-miterlimit="10"/></g></g><g transform="translate(-174,-166) scale(1,1)"><rect fill="#C0C0C0" stroke="none" x="463" y="287" width="79.7763671875" height="24" opacity="0.2"/></g><g transform="translate(-174,-166) scale(1,1)"><rect fill="#ffffff" stroke="none" x="456" y="280" width="79.7763671875" height="24"/></g><g transform="translate(-174,-166) scale(1,1)"><path fill="none" stroke="#000000" d="M 456 280 L 535.7763671875 280 L 535.7763671875 304 L 456 304 L 456 280 Z Z" stroke-miterlimit="10"/></g><g transform="translate(-174,-166) scale(1,1)"><rect fill="#ffffff" stroke="none" x="456" y="280" width="79.7763671875" height="24"/></g><g transform="translate(-174,-166) scale(1,1)"><path fill="none" stroke="#000000" d="M 456 280 L 535.7763671875 280 L 535.7763671875 304 L 456 304 L 456 280 Z Z" stroke-miterlimit="10"/></g><g transform="translate(-174,-166) scale(1,1)"><g><path fill="none" stroke="none"/><text fill="#000000" stroke="none" font-family="Arial" font-size="13px" font-style="normal" font-weight="bold" text-decoration="none" x="464.089599609375" y="299.5">Application</text><path fill="none" stroke="#000000" d="M 531.2763671875 299.5 L 460.5 299.5" stroke-miterlimit="10"/></g></g><g transform="translate(-174,-166) scale(1,1)"><rect fill="#C0C0C0" stroke="none" x="223" y="295" width="66.80810546875" height="24" opacity="0.2"/></g><g transform="translate(-174,-166) scale(1,1)"><rect fill="#ffffff" stroke="none" x="216" y="288" width="66.80810546875" height="24"/></g><g transform="translate(-174,-166) scale(1,1)"><path fill="none" stroke="#000000" d="M 216 288 L 282.80810546875 288 L 282.80810546875 312 L 216 312 L 216 288 Z Z" stroke-miterlimit="10"/></g><g transform="translate(-174,-166) scale(1,1)"><rect fill="#ffffff" stroke="none" x="216" y="288" width="66.80810546875" height="24"/></g><g transform="translate(-174,-166) scale(1,1)"><path fill="none" stroke="#000000" d="M 216 288 L 282.80810546875 288 L 282.80810546875 312 L 216 312 L 216 288 Z Z" stroke-miterlimit="10"/></g><g transform="translate(-174,-166) scale(1,1)"><g><path fill="none" stroke="none"/><text fill="#000000" stroke="none" font-family="Arial" font-size="13px" font-style="normal" font-weight="bold" text-decoration="none" x="221.5791015625" y="307.5">Database</text><path fill="none" stroke="#000000" d="M 278.30810546875 307.5 L 220.5 307.5" stroke-miterlimit="10"/></g></g><g transform="translate(-174,-166) scale(1,1)"><path fill="none" stroke="#000000" d="M 695 239 L 537 281" stroke-miterlimit="10"/></g><g transform="translate(-174,-166) scale(1,1)"><path fill="none" stroke="#000000" d="M 545.7401619672447 274.32096048923734 L 537 281 L 547.9030219255807 282.45743366583434" stroke-miterlimit="10"/></g><g transform="translate(-174,-166) scale(1,1)"><path fill="none" stroke="#000000" d="M 455 293 L 284 299" stroke-miterlimit="10"/></g><g transform="translate(-174,-166) scale(1,1)"><path fill="none" stroke="#000000" d="M 294.00881320996945 294.4367053428536 L 284 299 L 294.30403628901945 302.85056309577834" stroke-miterlimit="10"/></g><g transform="translate(-174,-166) scale(1,1)"><path fill="none" stroke="#000000" d="M 679 351 L 535 305" stroke-miterlimit="10"/></g><g transform="translate(-174,-166) scale(1,1)"><path fill="none" stroke="#000000" d="M 545.9616747450589 304.0825651066492 L 535 305 L 543.399798979778 312.102350111007" stroke-miterlimit="10"/></g><g transform="translate(-174,-166) scale(1,1)"><path fill="none" stroke="#000000" d="M 535 305 L 679 351" stroke-miterlimit="10"/></g><g transform="translate(-174,-166) scale(1,1)"><path fill="none" stroke="#000000" d="M 668.0383252549411 351.9174348933508 L 679 351 L 670.600201020222 343.897649888993" stroke-miterlimit="10"/></g><g transform="translate(-174,-166) scale(1,1)"><path fill="none" stroke="#000000" d="M 284 299 L 455 293" stroke-miterlimit="10"/></g><g transform="translate(-174,-166) scale(1,1)"><path fill="none" stroke="#000000" d="M 444.99118679003055 297.5632946571464 L 455 293 L 444.69596371098055 289.14943690422166" stroke-miterlimit="10"/></g><g transform="translate(-174,-166) scale(1,1)"><path fill="none" stroke="#000000" d="M 495 305 L 496 368 L 679 365" stroke-miterlimit="10" stroke-dasharray="3"/></g><g transform="translate(-174,-166) scale(1,1)"><path fill="none" stroke="#000000" d="M 668.9076896678519 369.3755310717234 L 679 365 L 668.769691234191 360.95762661840706" stroke-miterlimit="10"/></g><g transform="translate(-174,-166) scale(1,1)"><path fill="none" stroke="#000000" d="M 537 281 L 695 239" stroke-miterlimit="10"/></g><g transform="translate(-174,-166) scale(1,1)"><path fill="none" stroke="#000000" d="M 686.2598380327553 245.67903951076264 L 695 239 L 684.0969780744193 237.54256633416563" stroke-miterlimit="10"/></g></g></svg>