<svg version="1.1" xmlns="http://www.w3.org/2000/svg" xmlns:xlink="http://www.w3.org/1999/xlink" width="832.70166015625" height="808"><defs/><g><g transform="translate(10,-22) scale(1,1)"><rect fill="#C0C0C0" stroke="none" x="39" y="407" width="180" height="132" opacity="0.2"/></g><g transform="translate(10,-22) scale(1,1)"><rect fill="#ffffff" stroke="none" x="32" y="400" width="180" height="132"/></g><g transform="translate(10,-22) scale(1,1)"><path fill="none" stroke="#000000" d="M 32 400 L 212 400 L 212 532 L 32 532 L 32 400 Z Z" stroke-miterlimit="10"/></g><g transform="translate(10,-22) scale(1,1)"><path fill="none" stroke="#000000" d="M 32 425 L 212 425" stroke-miterlimit="10"/></g><g transform="translate(10,-22) scale(1,1)"><path fill="none" stroke="#000000" d="M 32 523 L 212 523" stroke-miterlimit="10"/></g><g transform="translate(10,-22) scale(1,1)"><g><path fill="none" stroke="none"/><text fill="#000000" stroke="none" font-family="Arial" font-size="13px" font-style="normal" font-weight="bold" text-decoration="none" x="105.378662109375" y="419.5">Event</text></g></g><g transform="translate(10,-22) scale(1,1)"><g><path fill="none" stroke="none"/><text fill="#000000" stroke="none" font-family="Arial" font-size="13px" font-style="normal" font-weight="normal" text-decoration="none" x="37" y="442.5">+name: String</text></g></g><g transform="translate(10,-22) scale(1,1)"><g><path fill="none" stroke="none"/><text fill="#000000" stroke="none" font-family="Arial" font-size="13px" font-style="normal" font-weight="normal" text-decoration="none" x="37" y="457.5">+eventLocation: location</text></g></g><g transform="translate(10,-22) scale(1,1)"><g><path fill="none" stroke="none"/><text fill="#000000" stroke="none" font-family="Arial" font-size="13px" font-style="normal" font-weight="normal" text-decoration="none" x="37" y="472.5">+startTime: DateTime</text></g></g><g transform="translate(10,-22) scale(1,1)"><g><path fill="none" stroke="none"/><text fill="#000000" stroke="none" font-family="Arial" font-size="13px" font-style="normal" font-weight="normal" text-decoration="none" x="37" y="487.5">+endTime: DateTime</text></g></g><g transform="translate(10,-22) scale(1,1)"><g><path fill="none" stroke="none"/><text fill="#000000" stroke="none" font-family="Arial" font-size="13px" font-style="normal" font-weight="normal" text-decoration="none" x="37" y="502.5">+ChosenMobility: Mobility</text></g></g><g transform="translate(10,-22) scale(1,1)"><g><path fill="none" stroke="none"/><text fill="#000000" stroke="none" font-family="Arial" font-size="13px" font-style="normal" font-weight="normal" text-decoration="none" x="37" y="517.5">+periodicity: PeriodicityStatus</text></g></g><g transform="translate(10,-22) scale(1,1)"><rect fill="#C0C0C0" stroke="none" x="7" y="631" width="187" height="72" opacity="0.2"/></g><g transform="translate(10,-22) scale(1,1)"><rect fill="#ffffff" stroke="none" x="0" y="624" width="187" height="72"/></g><g transform="translate(10,-22) scale(1,1)"><path fill="none" stroke="#000000" d="M 0 624 L 187 624 L 187 696 L 0 696 L 0 624 Z Z" stroke-miterlimit="10"/></g><g transform="translate(10,-22) scale(1,1)"><path fill="none" stroke="#000000" d="M 0 649 L 187 649" stroke-miterlimit="10"/></g><g transform="translate(10,-22) scale(1,1)"><path fill="none" stroke="#000000" d="M 0 672 L 187 672" stroke-miterlimit="10"/></g><g transform="translate(10,-22) scale(1,1)"><g><path fill="none" stroke="none"/><text fill="#000000" stroke="none" font-family="Arial" font-size="13px" font-style="normal" font-weight="bold" text-decoration="none" x="42.56005859375" y="643.5">CustomizedEvent</text></g></g><g transform="translate(10,-22) scale(1,1)"><g><path fill="none" stroke="none"/><text fill="#000000" stroke="none" font-family="Arial" font-size="13px" font-style="normal" font-weight="normal" text-decoration="none" x="5" y="666.5">+duration</text></g></g><g transform="translate(10,-22) scale(1,1)"><path fill="none" stroke="#000000" d="M 99 623 L 112 533" stroke-miterlimit="10"/></g><g transform="translate(10,-22) scale(1,1)"><path fill="#FFFFFF" stroke="none" d="M 117.42683068700799 554.320166713573 L 112 533 L 100.76171431993939 551.9129832383298"/></g><g transform="translate(10,-22) scale(1,1)"><path fill="none" stroke="#000000" d="M 117.42683068700799 554.320166713573 L 112 533 L 100.76171431993939 551.9129832383298 L 117.42683068700799 554.320166713573" stroke-miterlimit="10"/></g><g transform="translate(10,-22) scale(1,1)"><rect fill="#C0C0C0" stroke="none" x="535" y="63" width="172" height="87" opacity="0.2"/></g><g transform="translate(10,-22) scale(1,1)"><rect fill="#ffffff" stroke="none" x="528" y="56" width="172" height="87"/></g><g transform="translate(10,-22) scale(1,1)"><path fill="none" stroke="#000000" d="M 528 56 L 700 56 L 700 143 L 528 143 L 528 56 Z Z" stroke-miterlimit="10"/></g><g transform="translate(10,-22) scale(1,1)"><path fill="none" stroke="#000000" d="M 528 81 L 700 81" stroke-miterlimit="10"/></g><g transform="translate(10,-22) scale(1,1)"><path fill="none" stroke="#000000" d="M 528 134 L 700 134" stroke-miterlimit="10"/></g><g transform="translate(10,-22) scale(1,1)"><g><path fill="none" stroke="none"/><text fill="#000000" stroke="none" font-family="Arial" font-size="13px" font-style="normal" font-weight="bold" text-decoration="none" x="572.089599609375" y="75.5">PreferenceList</text></g></g><g transform="translate(10,-22) scale(1,1)"><g><path fill="none" stroke="none"/><text fill="#000000" stroke="none" font-family="Arial" font-size="13px" font-style="normal" font-weight="normal" text-decoration="none" x="533" y="98.5">+Name: String</text></g></g><g transform="translate(10,-22) scale(1,1)"><g><path fill="none" stroke="none"/><text fill="#000000" stroke="none" font-family="Arial" font-size="13px" font-style="normal" font-weight="normal" text-decoration="none" x="533" y="113.5">+list: List&lt;MobilityOption&gt;</text></g></g><g transform="translate(10,-22) scale(1,1)"><g><path fill="none" stroke="none"/><text fill="#000000" stroke="none" font-family="Arial" font-size="13px" font-style="normal" font-weight="normal" text-decoration="none" x="533" y="128.5">+status: Boolean</text></g></g><g transform="translate(10,-22) scale(1,1)"><rect fill="#C0C0C0" stroke="none" x="535" y="343" width="189.96533203125" height="162" opacity="0.2"/></g><g transform="translate(10,-22) scale(1,1)"><rect fill="#ffffff" stroke="none" x="528" y="336" width="189.96533203125" height="162"/></g><g transform="translate(10,-22) scale(1,1)"><path fill="none" stroke="#000000" d="M 528 336 L 717.96533203125 336 L 717.96533203125 498 L 528 498 L 528 336 Z Z" stroke-miterlimit="10"/></g><g transform="translate(10,-22) scale(1,1)"><path fill="none" stroke="#000000" d="M 528 361 L 717.96533203125 361" stroke-miterlimit="10"/></g><g transform="translate(10,-22) scale(1,1)"><path fill="none" stroke="#000000" d="M 528 459 L 717.96533203125 459" stroke-miterlimit="10"/></g><g transform="translate(10,-22) scale(1,1)"><g><path fill="none" stroke="none"/><text fill="#000000" stroke="none" font-family="Arial" font-size="13px" font-style="normal" font-weight="bold" text-decoration="none" x="581.799072265625" y="355.5">MobilityOption</text></g></g><g transform="translate(10,-22) scale(1,1)"><g><path fill="none" stroke="none"/><text fill="#000000" stroke="none" font-family="Arial" font-size="13px" font-style="normal" font-weight="normal" text-decoration="none" x="533" y="378.5">+mobilityStatus: boolean</text></g></g><g transform="translate(10,-22) scale(1,1)"><g><path fill="none" stroke="none"/><text fill="#000000" stroke="none" font-family="Arial" font-size="13px" font-style="normal" font-weight="normal" text-decoration="none" x="533" y="393.5">+restrictedTimeStart: DateTime</text></g></g><g transform="translate(10,-22) scale(1,1)"><g><path fill="none" stroke="none"/><text fill="#000000" stroke="none" font-family="Arial" font-size="13px" font-style="normal" font-weight="normal" text-decoration="none" x="533" y="408.5">+restrictedTimeEnd: DateTime</text></g></g><g transform="translate(10,-22) scale(1,1)"><g><path fill="none" stroke="none"/><text fill="#000000" stroke="none" font-family="Arial" font-size="13px" font-style="normal" font-weight="normal" text-decoration="none" x="533" y="423.5">+durationLimit</text></g></g><g transform="translate(10,-22) scale(1,1)"><g><path fill="none" stroke="none"/><text fill="#000000" stroke="none" font-family="Arial" font-size="13px" font-style="normal" font-weight="normal" text-decoration="none" x="533" y="438.5">+travelDuration</text></g></g><g transform="translate(10,-22) scale(1,1)"><g><path fill="none" stroke="none"/><text fill="#000000" stroke="none" font-family="Arial" font-size="13px" font-style="normal" font-weight="normal" text-decoration="none" x="533" y="453.5">+preferenceListOrder</text></g></g><g transform="translate(10,-22) scale(1,1)"><rect fill="#C0C0C0" stroke="none" x="375" y="447" width="72.2353515625" height="44" opacity="0.2"/></g><g transform="translate(10,-22) scale(1,1)"><rect fill="#ffffff" stroke="none" x="368" y="440" width="72.2353515625" height="44"/></g><g transform="translate(10,-22) scale(1,1)"><path fill="none" stroke="#000000" d="M 368 440 L 440.2353515625 440 L 440.2353515625 484 L 368 484 L 368 440 Z Z" stroke-miterlimit="10"/></g><g transform="translate(10,-22) scale(1,1)"><path fill="none" stroke="#000000" d="M 368 465 L 440.2353515625 465" stroke-miterlimit="10"/></g><g transform="translate(10,-22) scale(1,1)"><path fill="none" stroke="#000000" d="M 368 475 L 440.2353515625 475" stroke-miterlimit="10"/></g><g transform="translate(10,-22) scale(1,1)"><g><path fill="none" stroke="none"/><text fill="#000000" stroke="none" font-family="Arial" font-size="13px" font-style="normal" font-weight="bold" text-decoration="none" x="393.64404296875" y="459.5">Car</text></g></g><g transform="translate(10,-22) scale(1,1)"><rect fill="#C0C0C0" stroke="none" x="327" y="567" width="164.70166015625" height="102" opacity="0.2"/></g><g transform="translate(10,-22) scale(1,1)"><rect fill="#ffffff" stroke="none" x="320" y="560" width="164.70166015625" height="102"/></g><g transform="translate(10,-22) scale(1,1)"><path fill="none" stroke="#000000" d="M 320 560 L 484.70166015625 560 L 484.70166015625 662 L 320 662 L 320 560 Z Z" stroke-miterlimit="10"/></g><g transform="translate(10,-22) scale(1,1)"><path fill="none" stroke="#000000" d="M 320 585 L 484.70166015625 585" stroke-miterlimit="10"/></g><g transform="translate(10,-22) scale(1,1)"><path fill="none" stroke="#000000" d="M 320 638 L 484.70166015625 638" stroke-miterlimit="10"/></g><g transform="translate(10,-22) scale(1,1)"><g><path fill="none" stroke="none"/><text fill="#000000" stroke="none" font-family="Arial" font-size="13px" font-style="normal" font-weight="bold" text-decoration="none" x="385.73583984375" y="579.5">Metro</text></g></g><g transform="translate(10,-22) scale(1,1)"><g><path fill="none" stroke="none"/><text fill="#000000" stroke="none" font-family="Arial" font-size="13px" font-style="normal" font-weight="normal" text-decoration="none" x="325" y="602.5">+departureTime: DateTime</text></g></g><g transform="translate(10,-22) scale(1,1)"><g><path fill="none" stroke="none"/><text fill="#000000" stroke="none" font-family="Arial" font-size="13px" font-style="normal" font-weight="normal" text-decoration="none" x="325" y="617.5">+stationLocation: location</text></g></g><g transform="translate(10,-22) scale(1,1)"><g><path fill="none" stroke="none"/><text fill="#000000" stroke="none" font-family="Arial" font-size="13px" font-style="normal" font-weight="normal" text-decoration="none" x="325" y="632.5">+stops: List&lt;location&gt;</text></g></g><g transform="translate(10,-22) scale(1,1)"><rect fill="#C0C0C0" stroke="none" x="751" y="471" width="50.919921875" height="44" opacity="0.2"/></g><g transform="translate(10,-22) scale(1,1)"><rect fill="#ffffff" stroke="none" x="744" y="464" width="50.919921875" height="44"/></g><g transform="translate(10,-22) scale(1,1)"><path fill="none" stroke="#000000" d="M 744 464 L 794.919921875 464 L 794.919921875 508 L 744 508 L 744 464 Z Z" stroke-miterlimit="10"/></g><g transform="translate(10,-22) scale(1,1)"><path fill="none" stroke="#000000" d="M 744 489 L 794.919921875 489" stroke-miterlimit="10"/></g><g transform="translate(10,-22) scale(1,1)"><path fill="none" stroke="#000000" d="M 744 499 L 794.919921875 499" stroke-miterlimit="10"/></g><g transform="translate(10,-22) scale(1,1)"><g><path fill="none" stroke="none"/><text fill="#000000" stroke="none" font-family="Arial" font-size="13px" font-style="normal" font-weight="bold" text-decoration="none" x="756.8154296875" y="483.5">Bike</text></g></g><g transform="translate(10,-22) scale(1,1)"><rect fill="#C0C0C0" stroke="none" x="655" y="551" width="164.70166015625" height="72" opacity="0.2"/></g><g transform="translate(10,-22) scale(1,1)"><rect fill="#ffffff" stroke="none" x="648" y="544" width="164.70166015625" height="72"/></g><g transform="translate(10,-22) scale(1,1)"><path fill="none" stroke="#000000" d="M 648 544 L 812.70166015625 544 L 812.70166015625 616 L 648 616 L 648 544 Z Z" stroke-miterlimit="10"/></g><g transform="translate(10,-22) scale(1,1)"><path fill="none" stroke="#000000" d="M 648 569 L 812.70166015625 569" stroke-miterlimit="10"/></g><g transform="translate(10,-22) scale(1,1)"><path fill="none" stroke="#000000" d="M 648 607 L 812.70166015625 607" stroke-miterlimit="10"/></g><g transform="translate(10,-22) scale(1,1)"><g><path fill="none" stroke="none"/><text fill="#000000" stroke="none" font-family="Arial" font-size="13px" font-style="normal" font-weight="bold" text-decoration="none" x="715.541748046875" y="563.5">Train</text></g></g><g transform="translate(10,-22) scale(1,1)"><g><path fill="none" stroke="none"/><text fill="#000000" stroke="none" font-family="Arial" font-size="13px" font-style="normal" font-weight="normal" text-decoration="none" x="653" y="586.5">+departureTime: DateTime</text></g></g><g transform="translate(10,-22) scale(1,1)"><g><path fill="none" stroke="none"/><text fill="#000000" stroke="none" font-family="Arial" font-size="13px" font-style="normal" font-weight="normal" text-decoration="none" x="653" y="601.5">+stationLocation: location</text></g></g><g transform="translate(10,-22) scale(1,1)"><rect fill="#C0C0C0" stroke="none" x="511" y="199" width="92.45263671875" height="44" opacity="0.2"/></g><g transform="translate(10,-22) scale(1,1)"><rect fill="#ffffff" stroke="none" x="504" y="192" width="92.45263671875" height="44"/></g><g transform="translate(10,-22) scale(1,1)"><path fill="none" stroke="#000000" d="M 504 192 L 596.45263671875 192 L 596.45263671875 236 L 504 236 L 504 192 Z Z" stroke-miterlimit="10"/></g><g transform="translate(10,-22) scale(1,1)"><path fill="none" stroke="#000000" d="M 504 217 L 596.45263671875 217" stroke-miterlimit="10"/></g><g transform="translate(10,-22) scale(1,1)"><path fill="none" stroke="#000000" d="M 504 227 L 596.45263671875 227" stroke-miterlimit="10"/></g><g transform="translate(10,-22) scale(1,1)"><g><path fill="none" stroke="none"/><text fill="#000000" stroke="none" font-family="Arial" font-size="13px" font-style="normal" font-weight="bold" text-decoration="none" x="519.516357421875" y="211.5">DefaultList</text></g></g><g transform="translate(10,-22) scale(1,1)"><rect fill="#C0C0C0" stroke="none" x="647" y="199" width="169.7734375" height="44" opacity="0.2"/></g><g transform="translate(10,-22) scale(1,1)"><rect fill="#ffffff" stroke="none" x="640" y="192" width="169.7734375" height="44"/></g><g transform="translate(10,-22) scale(1,1)"><path fill="none" stroke="#000000" d="M 640 192 L 809.7734375 192 L 809.7734375 236 L 640 236 L 640 192 Z Z" stroke-miterlimit="10"/></g><g transform="translate(10,-22) scale(1,1)"><path fill="none" stroke="#000000" d="M 640 217 L 809.7734375 217" stroke-miterlimit="10"/></g><g transform="translate(10,-22) scale(1,1)"><path fill="none" stroke="#000000" d="M 640 227 L 809.7734375 227" stroke-miterlimit="10"/></g><g transform="translate(10,-22) scale(1,1)"><g><path fill="none" stroke="none"/><text fill="#000000" stroke="none" font-family="Arial" font-size="13px" font-style="normal" font-weight="bold" text-decoration="none" x="680.453125" y="211.5">CustomizedList</text></g></g><g transform="translate(10,-22) scale(1,1)"><path fill="none" stroke="#000000" d="M 705 543 L 676 499" stroke-miterlimit="10"/></g><g transform="translate(10,-22) scale(1,1)"><path fill="#FFFFFF" stroke="none" d="M 694.2148543140756 511.33770976790265 L 676 499 L 680.1557687626124 520.6039252450034"/></g><g transform="translate(10,-22) scale(1,1)"><path fill="none" stroke="#000000" d="M 694.2148543140756 511.33770976790265 L 676 499 L 680.1557687626124 520.6039252450034 L 694.2148543140756 511.33770976790265" stroke-miterlimit="10"/></g><g transform="translate(10,-22) scale(1,1)"><path fill="none" stroke="#000000" d="M 461 559 L 529 499" stroke-miterlimit="10"/></g><g transform="translate(10,-22) scale(1,1)"><path fill="#FFFFFF" stroke="none" d="M 519.3294994181356 518.7606026855499 L 529 499 L 508.1890673018098 506.13477962038064"/></g><g transform="translate(10,-22) scale(1,1)"><path fill="none" stroke="#000000" d="M 519.3294994181356 518.7606026855499 L 529 499 L 508.1890673018098 506.13477962038064 L 519.3294994181356 518.7606026855499" stroke-miterlimit="10"/></g><g transform="translate(10,-22) scale(1,1)"><path fill="none" stroke="#000000" d="M 441 454 L 527 437" stroke-miterlimit="10"/></g><g transform="translate(10,-22) scale(1,1)"><path fill="#FFFFFF" stroke="none" d="M 508.69312306757666 449.2007482139869 L 527 437 L 505.42785138107604 432.6823149763957"/></g><g transform="translate(10,-22) scale(1,1)"><path fill="none" stroke="#000000" d="M 508.69312306757666 449.2007482139869 L 527 437 L 505.42785138107604 432.6823149763957 L 508.69312306757666 449.2007482139869" stroke-miterlimit="10"/></g><g transform="translate(10,-22) scale(1,1)"><path fill="none" stroke="#000000" d="M 743 474 L 719 463" stroke-miterlimit="10"/></g><g transform="translate(10,-22) scale(1,1)"><path fill="#FFFFFF" stroke="none" d="M 740.9848912430543 463.81520367459404 L 719 463 L 733.9692296352588 479.12210172796614"/></g><g transform="translate(10,-22) scale(1,1)"><path fill="none" stroke="#000000" d="M 740.9848912430543 463.81520367459404 L 719 463 L 733.9692296352588 479.12210172796614 L 740.9848912430543 463.81520367459404" stroke-miterlimit="10"/></g><g transform="translate(10,-22) scale(1,1)"><path fill="none" stroke="#000000" d="M 563 191 L 589 144" stroke-miterlimit="10"/></g><g transform="translate(10,-22) scale(1,1)"><path fill="#FFFFFF" stroke="none" d="M 586.5282257401798 165.86070291661477 L 589 144 L 571.7943403854758 157.7100429331616"/></g><g transform="translate(10,-22) scale(1,1)"><path fill="none" stroke="#000000" d="M 586.5282257401798 165.86070291661477 L 589 144 L 571.7943403854758 157.7100429331616 L 586.5282257401798 165.86070291661477" stroke-miterlimit="10"/></g><g transform="translate(10,-22) scale(1,1)"><path fill="none" stroke="#000000" d="M 702 191 L 657 144" stroke-miterlimit="10"/></g><g transform="translate(10,-22) scale(1,1)"><path fill="#FFFFFF" stroke="none" d="M 677.1375693613193 152.8587978991541 L 657 144 L 664.9752957843502 164.50352791965628"/></g><g transform="translate(10,-22) scale(1,1)"><path fill="none" stroke="#000000" d="M 677.1375693613193 152.8587978991541 L 657 144 L 664.9752957843502 164.50352791965628 L 677.1375693613193 152.8587978991541" stroke-miterlimit="10"/></g><g transform="translate(10,-22) scale(1,1)"><path fill="none" stroke="#000000" d="M 620 335 L 615 144" stroke-miterlimit="10"/></g><g transform="translate(10,-22) scale(1,1)"><g><path fill="none" stroke="none"/><text fill="#000000" stroke="none" font-family="Arial" font-size="13px" font-style="normal" font-weight="normal" text-decoration="none" x="620.74365234375" y="319.5">1..*</text></g></g><g transform="translate(10,-22) scale(1,1)"><g><path fill="none" stroke="none"/><text fill="#000000" stroke="none" font-family="Arial" font-size="13px" font-style="normal" font-weight="normal" text-decoration="none" x="623.885009765625" y="171.5">1</text></g></g><g transform="translate(10,-22) scale(1,1)"><rect fill="#C0C0C0" stroke="none" x="7" y="39" width="249.23974609375" height="145" opacity="0.2"/></g><g transform="translate(10,-22) scale(1,1)"><rect fill="#ffffff" stroke="none" x="0" y="32" width="249.23974609375" height="145"/></g><g transform="translate(10,-22) scale(1,1)"><path fill="none" stroke="#000000" d="M 0 32 L 249.23974609375 32 L 249.23974609375 177 L 0 177 L 0 32 Z Z" stroke-miterlimit="10"/></g><g transform="translate(10,-22) scale(1,1)"><path fill="none" stroke="#000000" d="M 0 57 L 249.23974609375 57" stroke-miterlimit="10"/></g><g transform="translate(10,-22) scale(1,1)"><path fill="none" stroke="#000000" d="M 0 95 L 249.23974609375 95" stroke-miterlimit="10"/></g><g transform="translate(10,-22) scale(1,1)"><g><path fill="none" stroke="none"/><text fill="#000000" stroke="none" font-family="Arial" font-size="13px" font-style="normal" font-weight="bold" text-decoration="none" x="98.2421875" y="51.5">Calendar</text></g></g><g transform="translate(10,-22) scale(1,1)"><g><path fill="none" stroke="none"/><text fill="#000000" stroke="none" font-family="Arial" font-size="13px" font-style="normal" font-weight="normal" text-decoration="none" x="5" y="74.5">+events: List&lt;Event&gt;</text></g></g><g transform="translate(10,-22) scale(1,1)"><g><path fill="none" stroke="none"/><text fill="#000000" stroke="none" font-family="Arial" font-size="13px" font-style="normal" font-weight="normal" text-decoration="none" x="5" y="89.5">+mobilityList: List&lt;MobilityOption&gt;</text></g></g><g transform="translate(10,-22) scale(1,1)"><g><path fill="none" stroke="none"/><text fill="#000000" stroke="none" font-family="Arial" font-size="13px" font-style="normal" font-weight="normal" text-decoration="none" x="5" y="112.5">+viewCalendar()</text></g></g><g transform="translate(10,-22) scale(1,1)"><g><path fill="none" stroke="none"/><text fill="#000000" stroke="none" font-family="Arial" font-size="13px" font-style="normal" font-weight="normal" text-decoration="none" x="5" y="127.5">+addEvent(Event e)</text></g></g><g transform="translate(10,-22) scale(1,1)"><g><path fill="none" stroke="none"/><text fill="#000000" stroke="none" font-family="Arial" font-size="13px" font-style="normal" font-weight="normal" text-decoration="none" x="5" y="142.5">+editEvent(Event e)</text></g></g><g transform="translate(10,-22) scale(1,1)"><g><path fill="none" stroke="none"/><text fill="#000000" stroke="none" font-family="Arial" font-size="13px" font-style="normal" font-weight="normal" text-decoration="none" x="5" y="157.5">+deleteEvent(Event e)</text></g></g><g transform="translate(10,-22) scale(1,1)"><path fill="none" stroke="#000000" d="M 122 399 L 124 178" stroke-miterlimit="10"/></g><g transform="translate(10,-22) scale(1,1)"><path fill="#000000" stroke="none" d="M 128.11737924785749 188.2003523531941 L 124 178 L 119.69868846744109 188.12416510631252 L 123.80091312965723 199.99909917287653"/></g><g transform="translate(10,-22) scale(1,1)"><path fill="none" stroke="#000000" d="M 128.11737924785749 188.2003523531941 L 124 178 L 119.69868846744109 188.12416510631252 L 123.80091312965723 199.99909917287653 L 128.11737924785749 188.2003523531941" stroke-miterlimit="10"/></g><g transform="translate(10,-22) scale(1,1)"><g><path fill="none" stroke="none"/><text fill="#000000" stroke="none" font-family="Arial" font-size="13px" font-style="normal" font-weight="normal" text-decoration="none" x="123.74365234375" y="383.5">0..*</text></g></g><g transform="translate(10,-22) scale(1,1)"><g><path fill="none" stroke="none"/><text fill="#000000" stroke="none" font-family="Arial" font-size="13px" font-style="normal" font-weight="normal" text-decoration="none" x="131.885009765625" y="205.5">1</text></g></g><g transform="translate(10,-22) scale(1,1)"><rect fill="#C0C0C0" stroke="none" x="199" y="279" width="231.9296875" height="102" opacity="0.2"/></g><g transform="translate(10,-22) scale(1,1)"><rect fill="#ffffff" stroke="none" x="192" y="272" width="231.9296875" height="102"/></g><g transform="translate(10,-22) scale(1,1)"><path fill="none" stroke="#000000" d="M 192 272 L 423.9296875 272 L 423.9296875 374 L 192 374 L 192 272 Z Z" stroke-miterlimit="10"/></g><g transform="translate(10,-22) scale(1,1)"><path fill="none" stroke="#000000" d="M 192 297 L 423.9296875 297" stroke-miterlimit="10"/></g><g transform="translate(10,-22) scale(1,1)"><path fill="none" stroke="#000000" d="M 192 365 L 423.9296875 365" stroke-miterlimit="10"/></g><g transform="translate(10,-22) scale(1,1)"><g><path fill="none" stroke="none"/><text fill="#000000" stroke="none" font-family="Arial" font-size="13px" font-style="normal" font-weight="bold" text-decoration="none" x="294.2412109375" y="291.5">User</text></g></g><g transform="translate(10,-22) scale(1,1)"><g><path fill="none" stroke="none"/><text fill="#000000" stroke="none" font-family="Arial" font-size="13px" font-style="normal" font-weight="normal" text-decoration="none" x="197" y="314.5">+username: String</text></g></g><g transform="translate(10,-22) scale(1,1)"><g><path fill="none" stroke="none"/><text fill="#000000" stroke="none" font-family="Arial" font-size="13px" font-style="normal" font-weight="normal" text-decoration="none" x="197" y="329.5">+password: String</text></g></g><g transform="translate(10,-22) scale(1,1)"><g><path fill="none" stroke="none"/><text fill="#000000" stroke="none" font-family="Arial" font-size="13px" font-style="normal" font-weight="normal" text-decoration="none" x="197" y="344.5">+preferenceLists: List&lt;PreferenceList&gt;</text></g></g><g transform="translate(10,-22) scale(1,1)"><g><path fill="none" stroke="none"/><text fill="#000000" stroke="none" font-family="Arial" font-size="13px" font-style="normal" font-weight="normal" text-decoration="none" x="197" y="359.5">+calendar: Calendar</text></g></g><g transform="translate(10,-22) scale(1,1)"><path fill="none" stroke="#000000" d="M 264 271 L 186 178" stroke-miterlimit="10"/></g><g transform="translate(10,-22) scale(1,1)"><g><path fill="none" stroke="none"/><text fill="#000000" stroke="none" font-family="Arial" font-size="13px" font-style="normal" font-weight="normal" text-decoration="none" x="254.885009765625" y="252.5">1</text></g></g><g transform="translate(10,-22) scale(1,1)"><g><path fill="none" stroke="none"/><text fill="#000000" stroke="none" font-family="Arial" font-size="13px" font-style="normal" font-weight="normal" text-decoration="none" x="204.885009765625" y="192.5">1</text></g></g><g transform="translate(10,-22) scale(1,1)"><path fill="none" stroke="#000000" d="M 378 271 L 552 144" stroke-miterlimit="10"/></g><g transform="translate(10,-22) scale(1,1)"><g><path fill="none" stroke="none"/><text fill="#000000" stroke="none" font-family="Arial" font-size="13px" font-style="normal" font-weight="normal" text-decoration="none" x="397.885009765625" y="274.5">1</text></g></g><g transform="translate(10,-22) scale(1,1)"><g><path fill="none" stroke="none"/><text fill="#000000" stroke="none" font-family="Arial" font-size="13px" font-style="normal" font-weight="normal" text-decoration="none" x="530.74365234375" y="172.5">1..*</text></g></g><g transform="translate(10,-22) scale(1,1)"><rect fill="#C0C0C0" stroke="none" x="583" y="591" width="50.919921875" height="44" opacity="0.2"/></g><g transform="translate(10,-22) scale(1,1)"><rect fill="#ffffff" stroke="none" x="576" y="584" width="50.919921875" height="44"/></g><g transform="translate(10,-22) scale(1,1)"><path fill="none" stroke="#000000" d="M 576 584 L 626.919921875 584 L 626.919921875 628 L 576 628 L 576 584 Z Z" stroke-miterlimit="10"/></g><g transform="translate(10,-22) scale(1,1)"><path fill="none" stroke="#000000" d="M 576 609 L 626.919921875 609" stroke-miterlimit="10"/></g><g transform="translate(10,-22) scale(1,1)"><path fill="none" stroke="#000000" d="M 576 619 L 626.919921875 619" stroke-miterlimit="10"/></g><g transform="translate(10,-22) scale(1,1)"><g><path fill="none" stroke="none"/><text fill="#000000" stroke="none" font-family="Arial" font-size="13px" font-style="normal" font-weight="bold" text-decoration="none" x="587.015869140625" y="603.5">Walk</text></g></g><g transform="translate(10,-22) scale(1,1)"><path fill="none" stroke="#000000" d="M 604 583 L 613 499" stroke-miterlimit="10"/></g><g transform="translate(10,-22) scale(1,1)"><path fill="#FFFFFF" stroke="none" d="M 619.2058010826651 520.1065874295773 L 613 499 L 602.4635529290864 518.3127751274083"/></g><g transform="translate(10,-22) scale(1,1)"><path fill="none" stroke="#000000" d="M 619.2058010826651 520.1065874295773 L 613 499 L 602.4635529290864 518.3127751274083 L 619.2058010826651 520.1065874295773" stroke-miterlimit="10"/></g><g transform="translate(10,-22) scale(1,1)"><rect fill="#C0C0C0" stroke="none" x="263" y="703" width="115.1962890625" height="44" opacity="0.2"/></g><g transform="translate(10,-22) scale(1,1)"><rect fill="#ffffff" stroke="none" x="256" y="696" width="115.1962890625" height="44"/></g><g transform="translate(10,-22) scale(1,1)"><path fill="none" stroke="#000000" d="M 256 696 L 371.1962890625 696 L 371.1962890625 740 L 256 740 L 256 696 Z Z" stroke-miterlimit="10"/></g><g transform="translate(10,-22) scale(1,1)"><path fill="none" stroke="#000000" d="M 256 721 L 371.1962890625 721" stroke-miterlimit="10"/></g><g transform="translate(10,-22) scale(1,1)"><path fill="none" stroke="#000000" d="M 256 731 L 371.1962890625 731" stroke-miterlimit="10"/></g><g transform="translate(10,-22) scale(1,1)"><g><path fill="none" stroke="none"/><text fill="#000000" stroke="none" font-family="Arial" font-size="13px" font-style="normal" font-weight="bold" text-decoration="none" x="265.187744140625" y="715.5">PeriodicityStatus</text></g></g><g transform="translate(10,-22) scale(1,1)"><rect fill="#C0C0C0" stroke="none" x="183" y="743" width="50.919921875" height="44" opacity="0.2"/></g><g transform="translate(10,-22) scale(1,1)"><rect fill="#ffffff" stroke="none" x="176" y="736" width="50.919921875" height="44"/></g><g transform="translate(10,-22) scale(1,1)"><path fill="none" stroke="#000000" d="M 176 736 L 226.919921875 736 L 226.919921875 780 L 176 780 L 176 736 Z Z" stroke-miterlimit="10"/></g><g transform="translate(10,-22) scale(1,1)"><path fill="none" stroke="#000000" d="M 176 761 L 226.919921875 761" stroke-miterlimit="10"/></g><g transform="translate(10,-22) scale(1,1)"><path fill="none" stroke="#000000" d="M 176 771 L 226.919921875 771" stroke-miterlimit="10"/></g><g transform="translate(10,-22) scale(1,1)"><g><path fill="none" stroke="none"/><text fill="#000000" stroke="none" font-family="Arial" font-size="13px" font-style="normal" font-weight="bold" text-decoration="none" x="187.0126953125" y="755.5">Daily</text></g></g><g transform="translate(10,-22) scale(1,1)"><rect fill="#C0C0C0" stroke="none" x="247" y="783" width="53.8017578125" height="44" opacity="0.2"/></g><g transform="translate(10,-22) scale(1,1)"><rect fill="#ffffff" stroke="none" x="240" y="776" width="53.8017578125" height="44"/></g><g transform="translate(10,-22) scale(1,1)"><path fill="none" stroke="#000000" d="M 240 776 L 293.8017578125 776 L 293.8017578125 820 L 240 820 L 240 776 Z Z" stroke-miterlimit="10"/></g><g transform="translate(10,-22) scale(1,1)"><path fill="none" stroke="#000000" d="M 240 801 L 293.8017578125 801" stroke-miterlimit="10"/></g><g transform="translate(10,-22) scale(1,1)"><path fill="none" stroke="#000000" d="M 240 811 L 293.8017578125 811" stroke-miterlimit="10"/></g><g transform="translate(10,-22) scale(1,1)"><g><path fill="none" stroke="none"/><text fill="#000000" stroke="none" font-family="Arial" font-size="13px" font-style="normal" font-weight="bold" text-decoration="none" x="245.591796875" y="795.5">Weekly</text></g></g><g transform="translate(10,-22) scale(1,1)"><rect fill="#C0C0C0" stroke="none" x="327" y="783" width="58.82275390625" height="44" opacity="0.2"/></g><g transform="translate(10,-22) scale(1,1)"><rect fill="#ffffff" stroke="none" x="320" y="776" width="58.82275390625" height="44"/></g><g transform="translate(10,-22) scale(1,1)"><path fill="none" stroke="#000000" d="M 320 776 L 378.82275390625 776 L 378.82275390625 820 L 320 820 L 320 776 Z Z" stroke-miterlimit="10"/></g><g transform="translate(10,-22) scale(1,1)"><path fill="none" stroke="#000000" d="M 320 801 L 378.82275390625 801" stroke-miterlimit="10"/></g><g transform="translate(10,-22) scale(1,1)"><path fill="none" stroke="#000000" d="M 320 811 L 378.82275390625 811" stroke-miterlimit="10"/></g><g transform="translate(10,-22) scale(1,1)"><g><path fill="none" stroke="none"/><text fill="#000000" stroke="none" font-family="Arial" font-size="13px" font-style="normal" font-weight="bold" text-decoration="none" x="326.65185546875" y="795.5">Monthly</text></g></g><g transform="translate(10,-22) scale(1,1)"><rect fill="#C0C0C0" stroke="none" x="407" y="759" width="64.62451171875" height="44" opacity="0.2"/></g><g transform="translate(10,-22) scale(1,1)"><rect fill="#ffffff" stroke="none" x="400" y="752" width="64.62451171875" height="44"/></g><g transform="translate(10,-22) scale(1,1)"><path fill="none" stroke="#000000" d="M 400 752 L 464.62451171875 752 L 464.62451171875 796 L 400 796 L 400 752 Z Z" stroke-miterlimit="10"/></g><g transform="translate(10,-22) scale(1,1)"><path fill="none" stroke="#000000" d="M 400 777 L 464.62451171875 777" stroke-miterlimit="10"/></g><g transform="translate(10,-22) scale(1,1)"><path fill="none" stroke="#000000" d="M 400 787 L 464.62451171875 787" stroke-miterlimit="10"/></g><g transform="translate(10,-22) scale(1,1)"><g><path fill="none" stroke="none"/><text fill="#000000" stroke="none" font-family="Arial" font-size="13px" font-style="normal" font-weight="bold" text-decoration="none" x="405.582275390625" y="771.5">OneTime</text></g></g><g transform="translate(10,-22) scale(1,1)"><path fill="none" stroke="#000000" d="M 228 748 L 255 739" stroke-miterlimit="10"/></g><g transform="translate(10,-22) scale(1,1)"><path fill="#FFFFFF" stroke="none" d="M 238.38001299009446 753.4144383099228 L 255 739 L 233.05534740612188 737.4404415580051"/></g><g transform="translate(10,-22) scale(1,1)"><path fill="none" stroke="#000000" d="M 238.38001299009446 753.4144383099228 L 255 739 L 233.05534740612188 737.4404415580051 L 238.38001299009446 753.4144383099228" stroke-miterlimit="10"/></g><g transform="translate(10,-22) scale(1,1)"><path fill="none" stroke="#000000" d="M 280 775 L 299 741" stroke-miterlimit="10"/></g><g transform="translate(10,-22) scale(1,1)"><path fill="#FFFFFF" stroke="none" d="M 296.43420248300333 762.8498668897953 L 299 741 L 281.73551813078234 754.6358962223777"/></g><g transform="translate(10,-22) scale(1,1)"><path fill="none" stroke="#000000" d="M 296.43420248300333 762.8498668897953 L 299 741 L 281.73551813078234 754.6358962223777 L 296.43420248300333 762.8498668897953" stroke-miterlimit="10"/></g><g transform="translate(10,-22) scale(1,1)"><path fill="none" stroke="#000000" d="M 339 775 L 323 741" stroke-miterlimit="10"/></g><g transform="translate(10,-22) scale(1,1)"><path fill="#FFFFFF" stroke="none" d="M 339.27217445690195 755.805956181353 L 323 741 L 324.0367728853402 762.9755569209116"/></g><g transform="translate(10,-22) scale(1,1)"><path fill="none" stroke="#000000" d="M 339.27217445690195 755.805956181353 L 323 741 L 324.0367728853402 762.9755569209116 L 339.27217445690195 755.805956181353" stroke-miterlimit="10"/></g><g transform="translate(10,-22) scale(1,1)"><path fill="none" stroke="#000000" d="M 399 758 L 362 741" stroke-miterlimit="10"/></g><g transform="translate(10,-22) scale(1,1)"><path fill="#FFFFFF" stroke="none" d="M 383.9841234022673 741.8356543746561 L 362 741 L 376.95422586113756 757.1360196112327"/></g><g transform="translate(10,-22) scale(1,1)"><path fill="none" stroke="#000000" d="M 383.9841234022673 741.8356543746561 L 362 741 L 376.95422586113756 757.1360196112327 L 383.9841234022673 741.8356543746561" stroke-miterlimit="10"/></g><g transform="translate(10,-22) scale(1,1)"><path fill="none" stroke="#000000" d="M 296 695 L 173 533" stroke-miterlimit="10"/></g><g transform="translate(10,-22) scale(1,1)"><g><path fill="none" stroke="none"/><text fill="#000000" stroke="none" font-family="Arial" font-size="13px" font-style="normal" font-weight="normal" text-decoration="none" x="191.885009765625" y="548.5">1</text></g></g><g transform="translate(10,-22) scale(1,1)"><rect fill="#C0C0C0" stroke="none" x="511" y="583" width="50.919921875" height="44" opacity="0.2"/></g><g transform="translate(10,-22) scale(1,1)"><rect fill="#ffffff" stroke="none" x="504" y="576" width="50.919921875" height="44"/></g><g transform="translate(10,-22) scale(1,1)"><path fill="none" stroke="#000000" d="M 504 576 L 554.919921875 576 L 554.919921875 620 L 504 620 L 504 576 Z Z" stroke-miterlimit="10"/></g><g transform="translate(10,-22) scale(1,1)"><path fill="none" stroke="#000000" d="M 504 601 L 554.919921875 601" stroke-miterlimit="10"/></g><g transform="translate(10,-22) scale(1,1)"><path fill="none" stroke="#000000" d="M 504 611 L 554.919921875 611" stroke-miterlimit="10"/></g><g transform="translate(10,-22) scale(1,1)"><g><path fill="none" stroke="none"/><text fill="#000000" stroke="none" font-family="Arial" font-size="13px" font-style="normal" font-weight="bold" text-decoration="none" x="514.29541015625" y="595.5">Tram</text></g></g><g transform="translate(10,-22) scale(1,1)"><path fill="none" stroke="#000000" d="M 541 575 L 580 499" stroke-miterlimit="10"/></g><g transform="translate(10,-22) scale(1,1)"><path fill="#FFFFFF" stroke="none" d="M 578.2107527091696 520.9271200601505 L 580 499 L 563.2299958210101 513.2396263938582"/></g><g transform="translate(10,-22) scale(1,1)"><path fill="none" stroke="#000000" d="M 578.2107527091696 520.9271200601505 L 580 499 L 563.2299958210101 513.2396263938582 L 578.2107527091696 520.9271200601505" stroke-miterlimit="10"/></g></g></svg>